<svg width="8" height="36" viewBox="0 0 8 36" fill="none" xmlns="http://www.w3.org/2000/svg">
<path fill-rule="evenodd" clip-rule="evenodd" d="M7.32998 32.527L4.09839 35.8474C3.90009 36.0511 3.57857 36.0511 3.38026 35.8474L0.148676 32.527C-0.0496302 32.3233 -0.0496302 31.9929 0.148676 31.7892C0.346982 31.5854 0.6685 31.5854 0.866807 31.7892L3.73933 34.7406L6.61185 31.7892C6.81015 31.5854 7.13167 31.5854 7.32998 31.7892C7.52828 31.9929 7.52828 32.3233 7.32998 32.527ZM3.23153 0.521741L3.23153 -1.90749e-07L4.24712 -1.45137e-07L4.24712 0.521742L3.23153 0.521741ZM3.23153 2.60871L3.23153 1.56522L4.24712 1.56522L4.24712 2.60871L3.23153 2.60871ZM3.23153 4.69567L3.23153 3.65219L4.24712 3.65219L4.24712 4.69567L3.23153 4.69567ZM3.23153 6.78264L3.23153 5.73916L4.24712 5.73916L4.24712 6.78264L3.23153 6.78264ZM3.23153 8.86961L3.23153 7.82612L4.24712 7.82612L4.24712 8.86961L3.23153 8.86961ZM3.23153 10.9566L3.23153 9.91309L4.24712 9.91309L4.24712 10.9566L3.23153 10.9566ZM3.23153 13.0435L3.23153 12.0001L4.24712 12.0001L4.24712 13.0435L3.23153 13.0435ZM3.23153 15.1305L3.23153 14.087L4.24712 14.087L4.24712 15.1305L3.23153 15.1305ZM3.23153 17.2175L3.23153 16.174L4.24712 16.174L4.24712 17.2175L3.23153 17.2175ZM3.23153 19.3044L3.23153 18.261L4.24712 18.261L4.24712 19.3044L3.23153 19.3044ZM3.23153 21.3914L3.23153 20.3479L4.24712 20.3479L4.24712 21.3914L3.23153 21.3914ZM3.23153 23.4784L3.23153 22.4349L4.24712 22.4349L4.24712 23.4784L3.23153 23.4784ZM3.23153 25.5653L3.23153 24.5219L4.24712 24.5219L4.24712 25.5653L3.23153 25.5653ZM3.23153 27.6523L3.23153 26.6088L4.24712 26.6088L4.24712 27.6523L3.23153 27.6523ZM3.23153 29.7393L3.23153 28.6958L4.24712 28.6958L4.24712 29.7393L3.23153 29.7393ZM3.23153 31.8262L3.23153 30.7828L4.24712 30.7828L4.24712 31.8262L3.23153 31.8262ZM3.23153 33.9132L3.23153 32.8697L4.24712 32.8697L4.24712 33.9132L3.23153 33.9132Z" fill="#F7FAFF" fill-opacity="0.3"/>
</svg>
