<svg width="40" height="40" viewBox="0 0 40 40" fill="none" xmlns="http://www.w3.org/2000/svg">
  <circle cx="20" cy="20" r="20" fill="white"/>
  <mask id="mask0_153_22495" style="mask-type:alpha" maskUnits="userSpaceOnUse" x="0" y="0" width="40" height="40">
  <circle cx="20" cy="20" r="20" fill="#5872FB"/>
  </mask>
  <g mask="url(#mask0_153_22495)">
  <path d="M34.109 12.2286C31.8648 12.758 29.2666 11.0917 28.248 10.1923L32.5561 15.5884C33.3576 15.3847 33.9254 13.2637 34.109 12.2286Z" fill="#E2B467"/>
  <path fill-rule="evenodd" clip-rule="evenodd" d="M28.4008 9.66365C28.5876 9.48014 28.8814 9.47219 29.0775 9.64535C29.5522 10.0645 30.4131 10.6761 31.418 11.116C32.4298 11.5588 33.5232 11.7996 34.4967 11.57C34.6609 11.5313 34.8332 11.579 34.9553 11.6971C35.0774 11.8151 35.1329 11.9877 35.103 12.1562C35.0072 12.6958 34.8119 13.519 34.5314 14.2438C34.3917 14.6051 34.2227 14.9632 34.0216 15.2534C33.8303 15.5296 33.5555 15.8238 33.1786 15.9195C32.9898 15.9675 32.7907 15.9 32.6681 15.7464L28.36 10.3504C28.1963 10.1453 28.214 9.84716 28.4008 9.66365ZM31.0005 12.0418L33.1519 14.7365C33.168 14.7156 33.1849 14.6927 33.2024 14.6673C33.339 14.4702 33.4737 14.1952 33.599 13.8713C33.7491 13.4835 33.874 13.0562 33.969 12.6694C32.9389 12.7266 31.9078 12.4389 31.0217 12.0511C31.0146 12.048 31.0076 12.0449 31.0005 12.0418Z" fill="#395F71"/>
  <path d="M15.557 23.4636C14.726 23.036 14.2165 19.4845 14.0656 17.7621C14.4491 21.0049 15.628 22.9143 16.1695 23.4636H15.557Z" fill="white"/>
  <path d="M13.3192 17.138C14.7582 16.5291 15.9548 13.0139 16.42 11.0934C16.42 15.3632 14.6294 16.8283 13.3192 17.138C13.1053 17.2286 12.886 17.2549 12.663 17.2022C12.8564 17.2127 13.0798 17.1946 13.3192 17.138Z" fill="white"/>
  <path d="M14.9906 33.3527L15.2058 21.9798C19.4206 21.6882 27.1615 21.9251 25.2675 24.1122C23.3735 26.2993 25.124 31.7671 26.236 34.2276L14.9906 33.3527Z" fill="#E4AB9A"/>
  <path fill-rule="evenodd" clip-rule="evenodd" d="M26.081 23.2824C26.1618 23.7323 25.96 24.1399 25.6713 24.4733C25.2989 24.9034 25.0772 25.5295 24.9987 26.3239C24.9205 27.1151 24.9893 28.0266 25.1542 28.9718C25.4841 30.8625 26.1826 32.7994 26.7248 33.9993L27.1064 34.8436L14.4427 33.8584L14.6772 21.4683L15.1692 21.4342C17.2967 21.287 20.3241 21.2717 22.5972 21.5742C23.712 21.7226 24.7358 21.9575 25.3669 22.3483C25.685 22.5452 26.0022 22.8433 26.081 23.2824ZM15.7341 22.4946C17.775 22.3807 20.446 22.3908 22.4574 22.6585C23.5679 22.8063 24.3877 23.0225 24.807 23.2821C24.9046 23.3425 24.9617 23.3944 24.9929 23.4318C25.0078 23.4496 25.0152 23.4623 25.0187 23.4694C25.0205 23.4729 25.0213 23.4753 25.0218 23.4766C25.0222 23.4778 25.0223 23.4785 25.0224 23.4787C25.0224 23.4789 25.0225 23.4793 25.0225 23.4801C25.0225 23.481 25.0225 23.4829 25.0222 23.486C25.0215 23.4922 25.0192 23.5057 25.0109 23.5274C24.9936 23.5729 24.9529 23.6476 24.8634 23.7509C24.2889 24.4143 24.0191 25.2918 23.9279 26.2146C23.8364 27.1407 23.9196 28.16 24.0946 29.1627C24.3744 30.7666 24.8993 32.3847 25.3897 33.6133L15.5382 32.8469L15.7341 22.4946Z" fill="#395F71"/>
  <path d="M15.1212 21.0635C14.7822 22.349 14.7857 23.7052 15.1311 25.0054C15.4766 26.3057 16.1528 27.5076 17.0967 28.4988C18.0405 29.4901 19.2211 30.2383 20.5283 30.6737C21.8354 31.109 23.2265 31.2173 24.5714 30.9884L22.9836 23.2044L15.1212 21.0635Z" fill="#395F71"/>
  <path fill-rule="evenodd" clip-rule="evenodd" d="M15.6302 22.2834C15.2668 21.7873 14.9111 21.2861 14.5683 20.7907C12.2817 19.1124 10.7936 16.3801 10.7936 13.2947C10.7936 8.19128 14.8647 4.05414 19.8867 4.05414C23.7373 4.05414 27.0288 6.48624 28.3549 9.92121C28.5032 10.161 28.6357 10.3828 28.7607 10.5919C28.8822 10.7954 28.9966 10.9869 29.1113 11.171C31.5617 12.8265 33.1768 15.6575 33.1768 18.8718C33.1768 23.9753 29.1056 28.1124 24.0836 28.1124C20.2473 28.1124 16.9659 25.6983 15.6302 22.2834Z" fill="#E4AB9A"/>
  <path fill-rule="evenodd" clip-rule="evenodd" d="M19.8868 4.60094C15.162 4.60094 11.3317 8.49328 11.3317 13.2947C11.3317 16.1972 12.7308 18.7675 14.8834 20.3475C14.9319 20.383 14.9742 20.4265 15.0085 20.4762C15.3488 20.968 15.7017 21.4652 16.0619 21.9569C16.09 21.9952 16.113 22.0371 16.1303 22.0815C17.3874 25.2952 20.4753 27.5656 24.0837 27.5656C28.8085 27.5656 32.6388 23.6733 32.6388 18.8719C32.6388 15.8482 31.1203 13.1848 28.8135 11.6264C28.7505 11.5839 28.6971 11.5283 28.6567 11.4634C28.5394 11.2749 28.4228 11.0799 28.3023 10.8781L28.3008 10.8757C28.1757 10.6663 28.0452 10.4479 27.8994 10.2122C27.8815 10.1833 27.8664 10.1527 27.8541 10.1209C26.6061 6.88826 23.5087 4.60094 19.8868 4.60094ZM10.2556 13.2947C10.2556 7.88932 14.5677 3.50739 19.8868 3.50739C23.948 3.50739 27.4208 6.06152 28.8371 9.67334C28.977 9.90035 29.1029 10.1111 29.2202 10.3073L29.2207 10.3082C29.321 10.4761 29.4144 10.6324 29.5064 10.7822C32.046 12.5434 33.7149 15.5095 33.7149 18.8719C33.7149 24.2773 29.4029 28.6592 24.0837 28.6592C20.0449 28.6592 16.588 26.1331 15.157 22.5529C14.823 22.0958 14.4958 21.6351 14.1796 21.1793C11.8007 19.3982 10.2556 16.5298 10.2556 13.2947Z" fill="#395F71"/>
  <path fill-rule="evenodd" clip-rule="evenodd" d="M28.1049 16.961C27.947 16.868 27.7404 16.8404 27.6012 16.8491C27.407 16.8612 27.2397 16.7139 27.2276 16.5201C27.2154 16.3263 27.363 16.1594 27.5573 16.1472C27.7938 16.1325 28.1511 16.1717 28.463 16.3553C28.7985 16.5529 29.0591 16.9076 29.0591 17.4475C29.0591 17.6842 28.9888 18.0385 28.7448 18.3129C28.4767 18.6143 28.057 18.7556 27.5039 18.6349C27.3138 18.5934 27.1934 18.4059 27.235 18.2162C27.2766 18.0265 27.4644 17.9064 27.6545 17.9479C28.0034 18.0241 28.1475 17.9251 28.2177 17.8461C28.3119 17.7402 28.3544 17.5742 28.3544 17.4475C28.3544 17.1717 28.2391 17.04 28.1049 16.961Z" fill="#395F71"/>
  <g filter="url(#filter0_d_153_22495)">
  <path d="M17.5008 19.7289C22.8662 17.1811 22.9314 10.413 22.9147 7.22829C25.9978 7.68773 27.0688 7.03685 27.219 6.65399C26.0979 5.40097 23.582 4.25237 22.4642 3.8347C18.5803 2.83229 15.7964 4.5381 14.4951 5.37344C6.00661 11.012 7.83274 23.2415 15.207 26.9633C18.0899 27.8404 21.4919 24.6254 21.8589 22.8851C18.5757 23.1775 17.3506 20.8079 17.5008 19.7289Z" fill="#E2B467"/>
  <path d="M15.4638 25.1326C13.9009 24.6439 12.9424 20.585 12.6586 18.6166C13.3799 22.3226 15.5974 24.5048 16.616 25.1326H15.4638Z" fill="white"/>
  </g>
  <path fill-rule="evenodd" clip-rule="evenodd" d="M14.3154 5.80185C6.18906 11.2033 7.92553 22.9071 14.94 26.4876C16.1568 26.8383 17.5465 26.3535 18.7348 25.4915C19.326 25.0627 19.8414 24.5578 20.2271 24.0636C20.4054 23.8352 20.5502 23.6166 20.6616 23.4154C17.6633 23.3131 16.3686 20.9915 16.5542 19.6578C16.5779 19.4874 16.6847 19.3407 16.8381 19.2679C19.3472 18.0764 20.6342 15.8975 21.2942 13.5763C21.957 11.2453 21.9715 8.82333 21.9632 7.23114C21.9624 7.08277 22.0254 6.94143 22.1356 6.84413C22.2458 6.74682 22.3923 6.70323 22.5368 6.72475C24.0419 6.94905 25.0144 6.89538 25.6065 6.76042C25.7807 6.72071 25.9177 6.67496 26.0234 6.62973C25.5246 6.19259 24.854 5.76239 24.1528 5.37971C23.2798 4.90326 22.4063 4.52546 21.8652 4.32178C18.209 3.38852 15.5915 4.98281 14.3154 5.80185ZM13.777 4.9432C15.1018 4.09279 18.0417 2.28447 22.137 3.34145C22.1538 3.34578 22.1703 3.35099 22.1866 3.35706C22.7654 3.57334 23.6954 3.97446 24.6268 4.48275C25.5475 4.98521 26.7314 5.46099 27.1391 6.31167C27.2338 6.62973 27.2402 6.69723 27.2338 6.8426C27.2118 7.33824 26.9525 7.26151 26.7314 7.40179C26.5025 7.54706 26.2021 7.66808 25.8258 7.75386C25.1688 7.90359 24.2424 7.95459 22.9662 7.80815C22.9621 9.40149 22.8828 11.657 22.2567 13.8589C21.571 16.2705 20.2145 18.6661 17.5474 20.0487C17.6472 20.9099 18.6555 22.6194 21.3647 22.3781C21.523 22.364 21.6786 22.4272 21.7838 22.5482C21.8891 22.6693 21.9315 22.834 21.8982 22.9919C21.7836 23.5354 21.4506 24.1345 21.012 24.6964C20.5666 25.267 19.9825 25.8374 19.3169 26.3202C18.0047 27.2721 16.2693 27.9551 14.6127 27.4511C14.5855 27.4428 14.559 27.4322 14.5336 27.4194C6.83324 23.5329 4.93864 10.8141 13.7705 4.94748C13.7726 4.94604 13.7748 4.94461 13.777 4.9432Z" fill="#395F71"/>
  <path d="M24.4422 17.0989C24.627 17.751 24.3607 18.4015 23.8474 18.5518C23.334 18.7021 22.768 18.2953 22.5831 17.6432C22.3983 16.9911 22.6646 16.3406 23.1779 16.1903C23.6913 16.04 24.2573 16.4468 24.4422 17.0989Z" fill="#395F71"/>
  <path d="M29.8661 14.6647C30.2477 15.2217 30.2016 15.9246 29.7631 16.2348C29.3247 16.545 28.66 16.345 28.2784 15.7881C27.8968 15.2311 27.9429 14.5282 28.3814 14.218C28.8198 13.9078 29.4846 14.1078 29.8661 14.6647Z" fill="#395F71"/>
  <path fill-rule="evenodd" clip-rule="evenodd" d="M22.6072 15.6552C22.64 15.5236 22.5615 15.3899 22.4321 15.3567C22.3026 15.3234 22.1711 15.4031 22.1383 15.5347C22.1109 15.645 22.1041 15.815 22.1839 15.9758C22.2063 16.0209 22.2341 16.0626 22.2674 16.1003C22.2193 16.12 22.1714 16.1404 22.124 16.1614C22.0969 16.1455 22.0663 16.1348 22.0333 16.1306C21.9723 16.1228 21.9392 16.1069 21.9224 16.0956C21.9064 16.0848 21.898 16.0736 21.8923 16.0622C21.878 16.0332 21.8769 15.9905 21.8838 15.9629C21.9165 15.8313 21.8381 15.6976 21.7086 15.6644C21.5791 15.6311 21.4476 15.7108 21.4149 15.8424C21.3875 15.9527 21.3807 16.1227 21.4605 16.2835C21.4887 16.3403 21.5256 16.3918 21.571 16.4366C21.4314 16.5137 21.3074 16.5881 21.2078 16.652C21.0666 16.7426 21.0245 16.9323 21.1136 17.0757C21.2027 17.2192 21.3894 17.262 21.5306 17.1715C21.7637 17.0219 22.1505 16.8061 22.5425 16.6502C22.7384 16.5724 22.9279 16.5126 23.0953 16.4819C23.2673 16.4502 23.3899 16.4543 23.4664 16.4777C23.6262 16.5266 23.7948 16.4346 23.843 16.2722C23.8911 16.1097 23.8006 15.9384 23.6408 15.8894C23.433 15.8258 23.2018 15.838 22.9877 15.8773C22.9586 15.8827 22.9293 15.8886 22.8998 15.8951C22.8629 15.8566 22.8133 15.8301 22.7568 15.8229C22.6957 15.8151 22.6627 15.7992 22.6459 15.7879C22.6299 15.7771 22.6214 15.7659 22.6158 15.7545C22.6014 15.7255 22.6004 15.6828 22.6072 15.6552Z" fill="#395F71"/>
  <path fill-rule="evenodd" clip-rule="evenodd" d="M28.4283 13.4374C28.3181 13.3726 28.2591 13.2309 28.2967 13.121C28.3342 13.0111 28.454 12.9746 28.5643 13.0394C28.6567 13.0938 28.7823 13.2016 28.8601 13.3622C28.8857 13.4151 28.9044 13.47 28.9155 13.5261C28.9512 13.5091 28.987 13.4926 29.0227 13.4767C29.0194 13.4364 29.0257 13.3969 29.0431 13.3624C29.0665 13.3158 29.0707 13.2828 29.0705 13.264C29.0704 13.246 29.0663 13.2328 29.0608 13.2214C29.0467 13.1925 29.0165 13.1635 28.9933 13.1499C28.8831 13.0851 28.8241 12.9434 28.8617 12.8335C28.8992 12.7236 29.0191 12.6871 29.1293 12.752C29.2217 12.8063 29.3473 12.9141 29.4251 13.0747C29.4598 13.1461 29.4817 13.2213 29.4893 13.2981C29.5568 13.2762 29.6196 13.2576 29.6755 13.2424C29.8077 13.2065 29.9643 13.3034 30.0252 13.4588C30.0861 13.6142 30.0283 13.7693 29.8961 13.8052C29.6777 13.8645 29.3387 13.9842 29.0404 14.1472C28.8913 14.2287 28.7583 14.3178 28.6567 14.411C28.5522 14.5069 28.4969 14.5927 28.4775 14.6601C28.4368 14.801 28.2905 14.8546 28.1507 14.7798C28.0109 14.705 27.9306 14.5302 27.9712 14.3893C28.0241 14.2062 28.1427 14.0573 28.2726 13.938C28.3305 13.8849 28.3939 13.8348 28.4607 13.7876C28.4523 13.7394 28.4574 13.691 28.478 13.6499C28.5014 13.6033 28.5056 13.5703 28.5055 13.5514C28.5053 13.5334 28.5013 13.5203 28.4957 13.5089C28.4817 13.48 28.4514 13.451 28.4283 13.4374Z" fill="#395F71"/>
  <path fill-rule="evenodd" clip-rule="evenodd" d="M24.9894 20.4326C24.2985 20.6045 23.8756 21.3129 24.0447 22.0149C24.1286 22.3631 24.3423 22.6443 24.6207 22.8183C24.4529 23.1034 24.3911 23.4531 24.475 23.8013C24.6441 24.5033 25.3412 24.9331 26.032 24.7613L29.6831 23.8531C30.3739 23.6812 30.7969 22.9728 30.6278 22.2708C30.5439 21.9226 30.3302 21.6414 30.0517 21.4674C30.2196 21.1823 30.2813 20.8326 30.1975 20.4844C30.0284 19.7824 29.3313 19.3526 28.6404 19.5244L24.9894 20.4326Z" fill="#DB7B65"/>
  <path fill-rule="evenodd" clip-rule="evenodd" d="M25.5711 22.5819L25.2181 23.1815C25.1404 23.3134 25.1126 23.4729 25.1511 23.6331C25.2288 23.9557 25.5491 24.1531 25.8665 24.0742L29.5176 23.166C29.835 23.087 30.0293 22.7615 29.9516 22.439C29.9131 22.2788 29.8158 22.1504 29.687 22.0699L29.1014 21.7038L29.4544 21.1042C29.532 20.9723 29.5599 20.8128 29.5213 20.6526C29.4436 20.33 29.1234 20.1326 28.8059 20.2115L25.1549 21.1197C24.8375 21.1987 24.6431 21.5242 24.7208 21.8467C24.7594 22.0069 24.8567 22.1353 24.9855 22.2158L25.5711 22.5819ZM24.6207 22.8183C24.4529 23.1034 24.3911 23.4531 24.475 23.8013C24.6441 24.5033 25.3412 24.9331 26.032 24.7613L29.6831 23.8531C30.3739 23.6812 30.7969 22.9728 30.6278 22.2708C30.5439 21.9226 30.3302 21.6414 30.0517 21.4674C30.2196 21.1823 30.2813 20.8326 30.1975 20.4844C30.0284 19.7824 29.3313 19.3526 28.6404 19.5244L24.9894 20.4326C24.2985 20.6045 23.8756 21.3129 24.0447 22.0149C24.1286 22.3631 24.3423 22.6443 24.6207 22.8183Z" fill="#395F71"/>
  <path fill-rule="evenodd" clip-rule="evenodd" d="M25.8907 22.5387C25.845 22.349 25.9593 22.1575 26.146 22.1111L28.2758 21.5813C28.4626 21.5349 28.651 21.651 28.6967 21.8408C28.7424 22.0305 28.6281 22.222 28.4414 22.2684L26.3116 22.7982C26.1248 22.8446 25.9364 22.7285 25.8907 22.5387Z" fill="#395F71"/>
  <path d="M19.9949 33.2561C13.0091 31.2405 15.5858 30.3809 13.1236 30.0845C7.22569 30.2623 4.36264 37.2085 3.84729 39.6588H35.3409C32.7641 36.8923 27.7133 30.8064 26.4081 31.0627C24.7476 31.3887 27.6106 32.6632 26.2936 33.5525C23.316 33.9675 20.682 33.434 19.9949 33.2561Z" fill="#395F71"/>
  <path fill-rule="evenodd" clip-rule="evenodd" d="M13.1486 29.4907L13.1898 29.4957C13.8381 29.5737 14.2509 29.6979 14.5804 29.9348C14.7382 30.0483 14.8569 30.1739 14.953 30.2785C14.9698 30.2968 14.986 30.3146 15.0019 30.332C15.0811 30.4189 15.1525 30.4972 15.2476 30.5865C15.6813 30.9935 16.6741 31.682 20.1412 32.6829C20.7862 32.8488 23.2582 33.3475 26.068 32.9851C26.0718 32.981 26.0749 32.9775 26.0773 32.9745C26.0771 32.9735 26.0769 32.9724 26.0766 32.9712C26.0527 32.8671 25.9584 32.7183 25.7654 32.454L25.751 32.4342C25.6731 32.3277 25.5785 32.1983 25.5027 32.0714C25.4277 31.946 25.3231 31.7477 25.3044 31.5131C25.2811 31.2214 25.3951 30.9495 25.6265 30.761C25.8179 30.6051 26.063 30.5272 26.3016 30.4803C26.6707 30.4078 27.0454 30.5653 27.3296 30.7214C27.643 30.8937 27.9892 31.1469 28.3501 31.4459C29.0744 32.046 29.9277 32.8893 30.8055 33.811C31.8354 34.8924 32.9481 36.1355 33.9432 37.2473C34.6226 38.0063 35.2471 38.7041 35.7532 39.2474L36.6886 40.2517H3.13672L3.28793 39.5328C3.56161 38.2315 4.4386 35.801 6.01139 33.6606C7.58731 31.5159 9.92105 29.588 13.107 29.492L13.1486 29.4907ZM4.59271 39.0661H34.0112C33.709 38.7309 33.3915 38.376 33.0634 38.0092C32.0914 36.9224 31.0263 35.7315 29.9901 34.6435C29.12 33.73 28.3048 32.927 27.6345 32.3716C27.298 32.0929 27.0154 31.8911 26.7927 31.7687C26.7354 31.7373 26.6876 31.7141 26.6484 31.6971C26.6582 31.7106 26.6684 31.7246 26.679 31.739C26.6857 31.7482 26.6927 31.7578 26.6999 31.7676C26.8534 31.9772 27.1043 32.3198 27.1908 32.6973C27.2421 32.9205 27.2438 33.1799 27.1332 33.4414C27.0253 33.6967 26.8353 33.8947 26.6066 34.0492L26.4983 34.1223L26.3701 34.1401C23.2969 34.5684 20.5858 34.0202 19.8562 33.8313L19.8487 33.8294L19.8413 33.8273C16.3287 32.8138 15.1181 32.0653 14.4784 31.4649C14.3474 31.3419 14.2428 31.227 14.163 31.1393C14.1489 31.1237 14.1355 31.109 14.1228 31.0953C14.0348 30.9993 13.9831 30.9489 13.9271 30.9086C13.8313 30.8397 13.6495 30.7481 13.0988 30.6785C10.4076 30.7756 8.37431 32.4032 6.92284 34.3785C5.72328 36.011 4.96117 37.8307 4.59271 39.0661Z" fill="#395F71"/>
  <path fill-rule="evenodd" clip-rule="evenodd" d="M21.1636 13.3712C21.1758 13.5711 21.0264 13.7433 20.8297 13.7558C20.6017 13.7703 20.2406 13.8654 19.9384 14.0987C19.6497 14.3217 19.4035 14.6774 19.3797 15.2584C19.3715 15.4585 19.2052 15.614 19.0083 15.6056C18.8113 15.5973 18.6584 15.4283 18.6666 15.2282C18.6998 14.4167 19.0603 13.8658 19.5067 13.5212C19.9396 13.187 20.4421 13.0537 20.7851 13.0319C20.9818 13.0194 21.1513 13.1713 21.1636 13.3712Z" fill="#395F71"/>
  <path fill-rule="evenodd" clip-rule="evenodd" d="M27.6924 10.9257C27.38 10.8894 27.1206 10.9837 26.993 11.0654C26.8262 11.1721 26.6059 11.1212 26.5009 10.9518C26.3958 10.7823 26.4459 10.5584 26.6127 10.4517C26.8674 10.2886 27.2882 10.1487 27.7734 10.2051C28.2713 10.2629 28.8113 10.5244 29.292 11.1238C29.4165 11.279 29.3935 11.5074 29.2407 11.634C29.088 11.7605 28.8632 11.7372 28.7387 11.5819C28.3671 11.1185 27.9921 10.9605 27.6924 10.9257Z" fill="#395F71"/>
  </g>
  <defs>
  <filter id="filter0_d_153_22495" x="7.21043" y="3.52814" width="21.6629" height="26.8926" filterUnits="userSpaceOnUse" color-interpolation-filters="sRGB">
  <feFlood flood-opacity="0" result="BackgroundImageFix"/>
  <feColorMatrix in="SourceAlpha" type="matrix" values="0 0 0 0 0 0 0 0 0 0 0 0 0 0 0 0 0 0 127 0" result="hardAlpha"/>
  <feOffset dy="1.65432"/>
  <feGaussianBlur stdDeviation="0.827161"/>
  <feColorMatrix type="matrix" values="0 0 0 0 0 0 0 0 0 0 0 0 0 0 0 0 0 0 0.25 0"/>
  <feBlend mode="normal" in2="BackgroundImageFix" result="effect1_dropShadow_153_22495"/>
  <feBlend mode="normal" in="SourceGraphic" in2="effect1_dropShadow_153_22495" result="shape"/>
  </filter>
  </defs>
</svg>
